<svg width="351" height="361" viewBox="0 0 351 361" fill="none" xmlns="http://www.w3.org/2000/svg">
<path d="M62.0005 124.5V100H35C8.6 103.2 0.666667 123 0 132.5V326C3.6 352.8 24.1667 360.5 34 361H305.5C328.3 355.4 335.667 338.667 336.5 331V299H266.5C245.3 295.8 232.667 280.667 229 273.5C215.4 255.5 223.333 232.667 229 223.5C240.2 203.9 258.667 199.333 266.5 199.5H336.5V198.5V167C330.1 143 310.833 136 302 135.5H42.0005C35.5 135.5 35.0001 124.5 46.5005 124.5H62.0005Z" fill="url(#paint0_linear_18_48)"/>
<path d="M241 248C241 228.67 256.67 213 276 213H339C345.627 213 351 218.373 351 225V275C351 281.627 345.627 287 339 287H276C256.67 287 241 271.33 241 252V248Z" fill="#3F087A"/>
<circle cx="288.5" cy="249.5" r="14.5" fill="white"/>
<circle cx="120.5" cy="249.5" r="65.5" stroke="white" stroke-width="12"/>
<path d="M173.5 199.5L160.5 214V215.5L173.5 230.5L188 219.5V214L173.5 199.5Z" fill="url(#paint1_linear_18_48)"/>
<path d="M80.0819 207.13L80 207C80.0264 207.04 80.0537 207.083 80.0819 207.13L113.5 260C138.5 230.5 211.2 180.4 254 166C222.5 182.667 149 232.2 107 297C99.3967 269.231 83.4659 212.743 80.0819 207.13Z" fill="white"/>
<path d="M187.5 61.7399L160.5 125.24H134L185.5 7.73992C188.7 -1.06008 202.5 -0.59341 209 0.739923L323 49.2399C340.2 60.8399 335.5 79.0733 331 86.7399L313 125.24H287.5L295 107.24C267.8 98.0399 269.333 69.4066 273.5 56.2399L238 41.2399C224 70.0399 198.5 66.9066 187.5 61.7399Z" fill="#1485C9"/>
<path d="M87 124.739H76L83.5 62.7402C83.5 56.3402 85.8333 46.7396 87 42.7394C91.8 28.3394 106.333 25.406 113 25.7394L87 124.739Z" fill="#1485C9"/>
<path d="M116.5 125.24H104.5L128.5 31.7399C135.3 10.1399 154.667 11.0732 163.5 14.2399L116.5 125.24Z" fill="#1485C9"/>
<path d="M271 125.24H181C181 93.3907 214.214 89.619 230.821 91.7144C257.393 93.8098 268.679 114.938 271 125.24Z" fill="#3F087A"/>
<defs>
<linearGradient id="paint0_linear_18_48" x1="-7.06032e-08" y1="332" x2="279" y2="333.5" gradientUnits="userSpaceOnUse">
<stop offset="0.1697" stop-color="#044688"/>
<stop offset="1" stop-color="#029BDD"/>
</linearGradient>
<linearGradient id="paint1_linear_18_48" x1="151.5" y1="221" x2="192" y2="207" gradientUnits="userSpaceOnUse">
<stop stop-color="#0272B5"/>
<stop offset="1" stop-color="#027DBF"/>
</linearGradient>
</defs>
</svg>
